<mxfile host="65bd71144e">
    <diagram id="zg9S28E-D0aAHT4RjSHa" name="Page-1">
        <mxGraphModel dx="1534" dy="335" grid="1" gridSize="10" guides="1" tooltips="1" connect="1" arrows="1" fold="1" page="1" pageScale="1" pageWidth="827" pageHeight="1169" background="#ffffff" math="0" shadow="0">
            <root>
                <mxCell id="0"/>
                <mxCell id="1" parent="0"/>
                <mxCell id="4" value="" style="edgeStyle=none;html=1;fontColor=#000000;strokeColor=#000000;" edge="1" parent="1" source="2" target="3">
                    <mxGeometry relative="1" as="geometry"/>
                </mxCell>
                <mxCell id="2" value="&lt;div style=&quot;text-align: justify&quot;&gt;&lt;span&gt;&lt;b&gt;urls.py&lt;/b&gt;&lt;/span&gt;&lt;/div&gt;&lt;div style=&quot;text-align: justify&quot;&gt;&lt;span&gt;- RegExp&lt;/span&gt;&lt;/div&gt;&lt;div style=&quot;text-align: justify&quot;&gt;&lt;span&gt;- ProjectEventsEndpoint.as_view()&lt;/span&gt;&lt;/div&gt;&lt;div style=&quot;text-align: justify&quot;&gt;&lt;span&gt;- name&lt;/span&gt;&lt;/div&gt;" style="rounded=0;whiteSpace=wrap;html=1;fillColor=#FFE6CC;fontColor=#000000;labelBorderColor=none;" vertex="1" parent="1">
                    <mxGeometry x="-20" y="100" width="230" height="80" as="geometry"/>
                </mxCell>
                <mxCell id="8" value="" style="edgeStyle=none;html=1;fontColor=#000000;strokeColor=#000000;" edge="1" parent="1" source="3" target="7">
                    <mxGeometry relative="1" as="geometry"/>
                </mxCell>
                <mxCell id="12" value="" style="edgeStyle=none;html=1;fontColor=#000000;strokeColor=#000000;" edge="1" parent="1" source="3" target="11">
                    <mxGeometry relative="1" as="geometry"/>
                </mxCell>
                <mxCell id="3" value="&lt;div style=&quot;text-align: justify&quot;&gt;&lt;b&gt;class ProjectEventsEndpoint(ProjectEndpoint)&lt;/b&gt;&lt;/div&gt;&lt;div style=&quot;text-align: justify&quot;&gt;- partial(eventstore.get_events, filter, referrer) =&amp;gt; data_fn&lt;/div&gt;&lt;div style=&quot;text-align: justify&quot;&gt;- serialiizer&lt;/div&gt;&lt;div style=&quot;text-align: justify&quot;&gt;- self.paginate(result, on_result, paginator)&lt;/div&gt;" style="rounded=0;whiteSpace=wrap;html=1;fillColor=#FFFFFF;fontColor=#000000;labelBorderColor=none;" vertex="1" parent="1">
                    <mxGeometry x="-85" y="260" width="360" height="100" as="geometry"/>
                </mxCell>
                <mxCell id="10" value="" style="edgeStyle=none;html=1;fontColor=#000000;strokeColor=#000000;" edge="1" parent="1" source="7" target="9">
                    <mxGeometry relative="1" as="geometry"/>
                </mxCell>
                <mxCell id="7" value="&lt;div style=&quot;text-align: justify&quot;&gt;&lt;b&gt;eventstore.get_events(self, sunba_filter,orderby,limit,offset,referrer)&lt;/b&gt;&lt;/div&gt;" style="rounded=0;whiteSpace=wrap;html=1;fillColor=#FFFFFF;fontColor=#000000;labelBorderColor=none;" vertex="1" parent="1">
                    <mxGeometry x="330" y="260" width="460" height="80" as="geometry"/>
                </mxCell>
                <mxCell id="9" value="&lt;div style=&quot;text-align: justify&quot;&gt;&lt;b&gt;backend.py =&amp;gt; __get_events()&lt;/b&gt;&lt;/div&gt;&lt;div style=&quot;text-align: justify&quot;&gt;- __get_columns() =&amp;gt; col&lt;/div&gt;&lt;div style=&quot;text-align: justify&quot;&gt;- sunba.aliased_query() =&amp;gt; result&lt;/div&gt;&lt;div style=&quot;text-align: justify&quot;&gt;- process event&lt;br&gt;&lt;/div&gt;" style="rounded=0;whiteSpace=wrap;html=1;fillColor=#FFFFFF;fontColor=#000000;labelBorderColor=none;" vertex="1" parent="1">
                    <mxGeometry x="330" y="440" width="460" height="80" as="geometry"/>
                </mxCell>
                <mxCell id="11" value="&lt;div style=&quot;text-align: justify&quot;&gt;&lt;b&gt;base.py =&amp;gt; paginate(self, request, paginator ):response&lt;/b&gt;&lt;/div&gt;&lt;div style=&quot;text-align: justify&quot;&gt;- self.get_per_page() =&amp;gt; per_page&lt;/div&gt;&lt;div style=&quot;text-align: justify&quot;&gt;- paginator.get_result(limit, cursor) =&amp;gt; cursor_result&lt;/div&gt;&lt;div style=&quot;text-align: justify&quot;&gt;- on_result(cursor_result) =&amp;gt; result&lt;/div&gt;" style="rounded=0;whiteSpace=wrap;html=1;fillColor=#FFFFFF;fontColor=#000000;labelBorderColor=none;" vertex="1" parent="1">
                    <mxGeometry x="-85" y="440" width="360" height="100" as="geometry"/>
                </mxCell>
            </root>
        </mxGraphModel>
    </diagram>
</mxfile>